<?xml version="1.0" encoding="UTF-8" standalone="no"?>
<!-- Created with Inkscape (http://www.inkscape.org/) -->

<svg
   xmlns:dc="http://purl.org/dc/elements/1.1/"
   xmlns:cc="http://creativecommons.org/ns#"
   xmlns:rdf="http://www.w3.org/1999/02/22-rdf-syntax-ns#"
   xmlns:svg="http://www.w3.org/2000/svg"
   xmlns="http://www.w3.org/2000/svg"
   xmlns:sodipodi="http://sodipodi.sourceforge.net/DTD/sodipodi-0.dtd"
   xmlns:inkscape="http://www.inkscape.org/namespaces/inkscape"
   width="256"
   height="256"
   viewBox="0 0 67.733332 67.733335"
   version="1.1"
   id="svg3781"
   inkscape:version="0.92.5 (2060ec1f9f, 2020-04-08)"
   sodipodi:docname="firefox.svg">
  <defs
     id="defs3775">
    <filter
       color-interpolation-filters="sRGB"
       height="1.0789"
       width="1.0662"
       y="-.03944"
       x="-.033112"
       id="b">
      <feGaussianBlur
         id="feGaussianBlur3783"
         stdDeviation="5.7946475" />
    </filter>
    <filter
       color-interpolation-filters="sRGB"
       height="1.0709"
       width="1.0732"
       y="-.03543"
       x="-.036588"
       id="a">
      <feGaussianBlur
         id="feGaussianBlur3786"
         stdDeviation="6.8298323" />
    </filter>
  </defs>
  <sodipodi:namedview
     id="base"
     pagecolor="#ffffff"
     bordercolor="#666666"
     borderopacity="1.0"
     inkscape:pageopacity="0.0"
     inkscape:pageshadow="2"
     inkscape:zoom="0.98994949"
     inkscape:cx="153.78964"
     inkscape:cy="120.39389"
     inkscape:document-units="mm"
     inkscape:current-layer="layer1"
     showgrid="false"
     units="px"
     inkscape:window-width="936"
     inkscape:window-height="984"
     inkscape:window-x="968"
     inkscape:window-y="43"
     inkscape:window-maximized="0" />
  <metadata
     id="metadata3778">
    <rdf:RDF>
      <cc:Work
         rdf:about="">
        <dc:format>image/svg+xml</dc:format>
        <dc:type
           rdf:resource="http://purl.org/dc/dcmitype/StillImage" />
        <dc:title></dc:title>
      </cc:Work>
    </rdf:RDF>
  </metadata>
  <g
     inkscape:label="Camada 1"
     inkscape:groupmode="layer"
     id="layer1"
     transform="translate(0,-229.26665)">
    <g
       style="enable-background:new"
       id="g3843"
       transform="matrix(0.14112731,0,0,0.13619682,-2.2468538,227.68649)">
      <path
         id="path3791"
         d="m 463.81,184.2 c -9.7454,-23.449 -29.513,-48.764 -44.995,-56.77 a 233.02,233.02 0 0 1 22.714,68.081 l 0.0408,0.37714 c -25.359,-63.224 -68.363,-88.714 -103.48,-144.22 -1.7767,-2.8067 -3.5535,-5.619 -5.2835,-8.588 -0.98965,-1.6944 -1.7824,-3.2236 -2.471,-4.6297 a 40.815,40.815 0 0 1 -3.3449,-8.883 0.57871,0.57871 0 0 0 -0.50925,-0.57937 0.79862,0.79862 0 0 0 -0.42239,0 c -0.0301,0 -0.0753,0.05466 -0.10975,0.05466 -0.0345,0.01148 -0.10975,0.05466 -0.15992,0.082 l 0.0878,-0.16397 c -56.337,32.985 -75.453,94.051 -77.212,124.6 a 112.19,112.19 0 0 0 -61.725,23.791 67.055,67.055 0 0 0 -5.7871,-4.3866 103.98,103.98 0 0 1 -0.6308,-54.823 166.12,166.12 0 0 0 -53.989,41.725 h -0.10411 c -8.8915,-11.241 -8.2665,-48.394 -7.7573,-56.152 a 40.091,40.091 0 0 0 -7.4886,3.9755 163.34,163.34 0 0 0 -21.921,18.779 195.86,195.86 0 0 0 -20.966,25.156 v 0.0273 -0.0273 a 189.43,189.43 0 0 0 -30.092,67.955 l -0.30103,1.4812 c -0.42245,1.9732 -1.9444,11.858 -2.2049,14.004 0,0.16401 -0.03481,0.32522 -0.05205,0.49195 a 213.76,213.76 0 0 0 -3.64,30.92 v 1.156 a 224.3,224.3 0 0 0 445.31,37.927 c 0.37598,-2.8936 0.68297,-5.7582 1.0185,-8.6805 a 230.66,230.66 0 0 0 -14.548,-112.67 z M 205.3,359.77 c 1.0474,0.50298 2.0313,1.0467 3.1076,1.5278 l 0.15647,0.10975 q -1.6321,-0.78206 -3.264,-1.6265 z m 51.38,-135.28 m 184.91,-28.553 v -0.21856 l 0.0408,0.24584 z"
         inkscape:connector-curvature="0"
         style="opacity:0.15;stroke-width:5.78709984;filter:url(#a)" />
      <circle
         id="circle3793"
         r="0"
         cy="173.42"
         cx="9288.7998"
         style="fill:#d5d3cf;stroke-width:27.32900047;enable-background:new" />
      <g
         id="g3813"
         style="stroke-width:5.78709984">
        <path
           id="path3795"
           d="m 463.81,179.98 c -9.7454,-23.449 -29.513,-48.764 -44.995,-56.77 a 233.02,233.02 0 0 1 22.714,68.081 l 0.0408,0.37714 c -25.359,-63.224 -68.363,-88.714 -103.48,-144.22 -1.7767,-2.8067 -3.5535,-5.619 -5.2835,-8.588 -0.98965,-1.6944 -1.7824,-3.2236 -2.471,-4.6297 a 40.815,40.815 0 0 1 -3.3449,-8.883 0.57871,0.57871 0 0 0 -0.50925,-0.57937 0.79862,0.79862 0 0 0 -0.42239,0 c -0.0301,0 -0.0753,0.05466 -0.10975,0.05466 -0.0345,0.01148 -0.10975,0.05466 -0.15992,0.082 l 0.0878,-0.16397 c -56.337,32.985 -75.453,94.051 -77.212,124.6 a 112.19,112.19 0 0 0 -61.725,23.791 67.055,67.055 0 0 0 -5.7871,-4.3866 103.98,103.98 0 0 1 -0.6308,-54.823 166.12,166.12 0 0 0 -53.989,41.725 h -0.10411 c -8.8915,-11.241 -8.2665,-48.394 -7.7573,-56.152 a 40.091,40.091 0 0 0 -7.4886,3.9755 163.34,163.34 0 0 0 -21.921,18.779 195.86,195.86 0 0 0 -20.966,25.156 v 0.0273 -0.0273 a 189.43,189.43 0 0 0 -30.092,67.955 l -0.30103,1.4812 c -0.42245,1.9732 -1.9444,11.858 -2.2049,14.004 0,0.16401 -0.03481,0.32522 -0.05205,0.49195 a 213.76,213.76 0 0 0 -3.64,30.92 v 1.156 a 224.3,224.3 0 0 0 445.31,37.927 c 0.37598,-2.8936 0.68297,-5.7582 1.0185,-8.6805 a 230.66,230.66 0 0 0 -14.548,-112.67 z M 205.3,355.55 c 1.0474,0.50298 2.0313,1.0467 3.1076,1.5278 l 0.15647,0.10975 q -1.6321,-0.78206 -3.264,-1.6265 z m 51.38,-135.28 m 184.91,-28.553 v -0.21856 l 0.0408,0.24584 z"
           inkscape:connector-curvature="0"
           style="fill:#ff3944" />
        <path
           id="path3797"
           d="m 354.84,206.22 c 0.48605,0.34161 0.93728,0.68323 1.3945,1.0248 a 122.11,122.11 0 0 0 -20.833,-27.17 c -69.711,-69.721 -18.27,-151.18 -9.5948,-155.32 l 0.0878,-0.13666 c -56.337,32.985 -75.453,94.051 -77.209,124.6 2.6157,-0.19129 5.2085,-0.399 7.8821,-0.399 a 113.2,113.2 0 0 1 98.275,57.391 z"
           inkscape:connector-curvature="0"
           style="fill:#ffcd34" />
        <path
           id="path3799"
           d="m 256.69,220.15 c -0.37036,5.5786 -20.081,24.821 -26.974,24.821 -63.779,0 -74.133,38.583 -74.133,38.583 2.8242,32.49 25.463,59.247 52.828,73.402 1.25,0.64754 2.5174,1.2327 3.7849,1.8065 q 3.2929,1.4594 6.5858,2.6974 a 99.74,99.74 0 0 0 29.185,5.6309 c 111.79,5.243 133.44,-133.68 52.772,-173.99 a 77.432,77.432 0 0 1 54.08,13.131 113.2,113.2 0 0 0 -98.275,-57.391 c -2.662,0 -5.2662,0.21856 -7.8821,0.39899 a 112.19,112.19 0 0 0 -61.725,23.791 c 3.4202,2.8933 7.2803,6.7592 15.411,14.774 15.22,14.994 54.252,30.526 54.34,32.349 z"
           inkscape:connector-curvature="0"
           style="fill:#9a46eb" />
        <path
           id="path3801"
           d="m 176.49,165.5 c 1.8172,1.156 3.3161,2.1645 4.6297,3.0729 a 103.98,103.98 0 0 1 -0.63079,-54.823 166.12,166.12 0 0 0 -53.989,41.725 c 1.0938,-0.0273 33.628,-0.61216 49.987,10.023 z"
           inkscape:connector-curvature="0"
           style="fill:#ff9633" />
        <path
           id="path3803"
           d="m 335.4,180.25 a 122.11,122.11 0 0 1 20.833,27.199 c 1.2324,0.93192 2.3841,1.8584 3.3622,2.7545 50.85,46.874 24.207,113.14 22.222,117.86 41.308,-34.033 67.708,-84.365 59.774,-136.32 -25.37,-63.252 -68.376,-88.743 -103.5,-144.26 -1.7767,-2.8067 -3.5535,-5.619 -5.2835,-8.588 -0.98965,-1.6944 -1.7824,-3.2236 -2.471,-4.6297 a 40.815,40.815 0 0 1 -3.3449,-8.883 0.57871,0.57871 0 0 0 -0.50925,-0.57937 0.79862,0.79862 0 0 0 -0.42239,0 c -0.0301,0 -0.0753,0.05466 -0.10975,0.05466 -0.0345,0.01148 -0.10976,0.05466 -0.15993,0.082 -8.6748,4.1145 -60.116,85.566 9.6065,155.29 z"
           inkscape:connector-curvature="0"
           style="fill:#ff8619" />
        <path
           id="path3805"
           d="m 118.76,105.49 a 40.091,40.091 0 0 0 -7.4883,3.9766 163.34,163.34 0 0 0 -21.922,18.779 195.86,195.86 0 0 0 -21.053,25.098 189.43,189.43 0 0 0 -30.092,67.955 c -0.11007,0.45638 -8.0798,35.296 -4.1504,53.361 l 0.002,-0.002 c 17.309,102.28 110.01,180.37 215.24,183.35 97.394,2.7545 159.62,-53.785 185.32,-108.94 a 203.13,203.13 0 0 0 7.0645,-151.11 c 7.7938,51.833 -18.599,102.02 -59.818,135.98 l -0.12891,0.28907 c -6.288,5.1211 -12.555,9.6838 -18.773,13.738 6.1836,-4.0386 12.415,-8.5785 18.668,-13.672 l 0.12695,-0.28906 c 2.0082,-4.6874 28.654,-70.966 -22.221,-117.82 l -0.002,-0.008 c -0.97805,-0.89639 -2.1287,-1.8239 -3.3613,-2.7559 -0.4572,-0.34161 -0.90879,-0.68183 -1.3945,-1.0234 a 77.432,77.432 0 0 0 -54.08,-13.131 c 80.674,40.336 59.028,179.23 -52.771,173.99 a 99.74,99.74 0 0 1 -29.186,-5.6287 c -2.1952,-0.8217 -4.3887,-1.7207 -6.584,-2.6973 -0.97054,-0.44378 -1.9395,-0.89628 -2.9024,-1.3711 -0.20154,-0.12967 -0.43665,-0.26703 -0.62109,-0.39258 -0.38803,-0.18563 -0.77602,-0.38902 -1.1641,-0.58008 -26.962,-14.273 -49.097,-40.782 -51.887,-72.896 l -0.006,0.002 c 0,0 10.353,-38.584 74.133,-38.584 6.8917,0 26.617,-19.237 26.975,-24.818 a 111.69,111.69 0 0 0 0.0664,-0.0215 c -0.0869,-1.8229 -39.122,-17.362 -54.34,-32.35 -8.1308,-8.015 -11.992,-11.874 -15.412,-14.773 a 67.055,67.055 0 0 0 -5.7871,-4.3867 c -1.331,-0.90734 -2.8292,-1.8906 -4.6289,-3.0723 -16.36,-10.637 -48.892,-10.053 -49.971,-10.023 h -0.10547 c -8.8884,-11.26 -8.2628,-48.414 -7.7539,-56.172 z m 322.93,92.469 c -0.0167,-0.11081 -0.028,-0.2212 -0.0449,-0.33203 l -0.041,-0.37695 c -0.0345,-0.0549 0,0.0547 0,0.21875 v 0.21875 a 203.13,203.13 0 0 1 0.0859,0.27148 z m -311.61,15.953 a 84.594,84.594 0 0 1 0.98438,0 84.594,84.594 0 0 0 -5.1406,0.41406 84.594,84.594 0 0 1 4.1562,-0.41406 z m 3.9062,0 a 84.594,84.594 0 0 1 5.6211,0.10937 84.594,84.594 0 0 0 -5.6211,-0.10937 z m 8.0879,0.35937 a 84.594,84.594 0 0 1 6.0098,0.72071 84.594,84.594 0 0 0 -6.0098,-0.72071 z m -19.508,0.39063 a 84.594,84.594 0 0 0 -4.6738,0.85351 84.594,84.594 0 0 1 4.6738,-0.85351 z m 27.537,0.74023 a 84.594,84.594 0 0 1 6.3164,1.4082 84.594,84.594 0 0 0 -6.3164,-1.4082 z m -35.92,0.86524 a 84.594,84.594 0 0 0 -4.1406,1.1934 84.594,84.594 0 0 1 4.1406,-1.1934 z m 43.83,1.0371 a 84.594,84.594 0 0 1 6.4902,2.1445 84.594,84.594 0 0 0 -6.4902,-2.1445 z m -52.008,1.4023 a 84.594,84.594 0 0 0 -3.5703,1.4277 84.594,84.594 0 0 1 3.5703,-1.4277 z m 59.779,1.2852 a 84.594,84.594 0 0 1 6.7617,2.9648 111.69,111.69 0 0 0 9.5039,3.7539 111.69,111.69 0 0 1 -9.5703,-3.7344 84.594,84.594 0 0 0 -6.6953,-2.9844 z m -67.689,1.9766 a 84.594,84.594 0 0 0 -2.9434,1.5352 84.594,84.594 0 0 1 2.9434,-1.5352 z m 87.379,5.8105 a 111.69,111.69 0 0 0 7.2207,2.0449 111.69,111.69 0 0 1 -7.2207,-2.0449 z m -94.111,1.0664 a 57.598,57.598 0 0 0 0.09766,0.1875 57.598,57.598 0 0 1 -0.09766,-0.1875 z m 156.13,0.26172 a 111.69,111.69 0 0 1 -5.7051,1.3008 111.69,111.69 0 0 0 5.7051,-1.3008 z m -51.029,1.4902 a 111.69,111.69 0 0 0 7.1191,1.2695 111.69,111.69 0 0 1 -7.1191,-1.2695 z m 40.209,0.83399 a 111.69,111.69 0 0 1 -6.1641,0.76758 111.69,111.69 0 0 0 6.1641,-0.76758 z m -28.926,0.86328 a 111.69,111.69 0 0 0 6.8535,0.52148 111.69,111.69 0 0 1 -6.8535,-0.52148 z m 17.936,0.37695 a 111.69,111.69 0 0 1 -6.543,0.15625 111.69,111.69 0 0 0 6.543,-0.15625 z m -131.37,1.1582 a 57.598,57.598 0 0 0 0.12109,0.18164 57.598,57.598 0 0 1 -0.12109,-0.18164 z m 3.3809,4.5996 a 57.598,57.598 0 0 0 0.19336,0.23828 57.598,57.598 0 0 1 -0.19336,-0.23828 z m 3.8086,4.2344 a 57.598,57.598 0 0 0 0.30078,0.30078 57.598,57.598 0 0 1 -0.30078,-0.30078 z m 4.1973,3.8262 a 57.598,57.598 0 0 0 0.44336,0.36328 57.598,57.598 0 0 1 -0.44336,-0.36328 z m 4.5312,3.3789 a 57.598,57.598 0 0 0 0.64063,0.42578 57.598,57.598 0 0 1 -0.64063,-0.42578 z m 4.8555,2.9258 a 57.598,57.598 0 0 0 0.82617,0.4375 57.598,57.598 0 0 1 -0.82617,-0.4375 z m 5.0977,2.4238 a 57.598,57.598 0 0 0 1.0566,0.43164 57.598,57.598 0 0 1 -1.0566,-0.43164 z m 5.3027,1.9121 a 57.598,57.598 0 0 0 1.3203,0.39062 57.598,57.598 0 0 1 -1.3203,-0.39062 z m 5.4531,1.3809 a 57.598,57.598 0 0 0 1.5781,0.30078 57.598,57.598 0 0 1 -1.5781,-0.30078 z m 5.5625,0.84375 a 57.598,57.598 0 0 0 1.8574,0.16211 57.598,57.598 0 0 1 -1.8574,-0.16211 z"
           inkscape:connector-curvature="0"
           style="opacity:0.15;filter:url(#b)" />
        <path
           id="path3807"
           d="m 359.54,210.04 c -0.97805,-0.89639 -2.1295,-1.8229 -3.3622,-2.7548 -0.4572,-0.34161 -0.90875,-0.68322 -1.3945,-1.0248 a 77.432,77.432 0 0 0 -54.08,-13.131 c 80.674,40.336 59.028,179.23 -52.772,173.99 a 99.74,99.74 0 0 1 -29.185,-5.6303 q -3.2929,-1.2326 -6.5858,-2.6974 c -1.2674,-0.5795 -2.5347,-1.1562 -3.7849,-1.8065 l 0.15648,0.10976 c 15.59,10.642 92.593,36.642 173.1,-28.936 l 0.12857,-0.28849 c 2.0082,-4.6874 28.652,-70.966 -22.222,-117.82 z"
           inkscape:connector-curvature="0"
           style="fill:#ffa316" />
        <path
           id="path3809"
           d="m 34.06,268.52 c 17.309,102.28 110.01,180.37 215.24,183.35 97.394,2.7545 159.62,-53.785 185.32,-108.94 a 203.13,203.13 0 0 0 6.9793,-151.38 v -0.21857 c 0,-0.164 -0.0345,-0.27344 0,-0.21856 l 0.0408,0.37714 c 7.957,51.95 -18.467,102.28 -59.774,136.32 l -0.12857,0.28849 c -80.486,65.55 -157.51,39.548 -173.1,28.936 q -1.6316,-0.78056 -3.2634,-1.625 c -46.927,-22.431 -66.315,-65.187 -62.161,-101.85 a 57.598,57.598 0 0 1 -53.129,-33.421 84.594,84.594 0 0 1 82.458,-3.3104 111.69,111.69 0 0 0 84.211,3.3104 c -0.0869,-1.8229 -39.122,-17.361 -54.34,-32.349 -8.1308,-8.015 -11.991,-11.875 -15.411,-14.774 a 67.055,67.055 0 0 0 -5.7871,-4.3866 c -1.331,-0.90734 -2.8299,-1.8912 -4.6297,-3.0729 -16.36,-10.637 -48.893,-10.052 -49.972,-10.023 h -0.10411 c -8.8884,-11.26 -8.2631,-48.413 -7.7542,-56.171 a 40.091,40.091 0 0 0 -7.4886,3.9755 163.34,163.34 0 0 0 -21.921,18.779 195.86,195.86 0 0 0 -21.053,25.098 v 0.0273 -0.0273 a 189.43,189.43 0 0 0 -30.092,67.955 c -0.11007,0.45638 -8.0787,35.296 -4.1493,53.362 z"
           inkscape:connector-curvature="0"
           style="fill:#ff6333" />
        <path
           id="path3811"
           d="m 155.59,283.56 c 0,0 10.353,-38.583 74.133,-38.583 6.8924,0 26.621,-19.242 26.974,-24.821 a 111.69,111.69 0 0 1 -84.211,-3.3101 84.594,84.594 0 0 0 -82.458,3.3101 57.598,57.598 0 0 0 53.129,33.421 c -4.1552,36.673 15.232,79.426 62.161,101.85 1.0474,0.50298 2.0313,1.0467 3.1076,1.5278 -27.389,-14.149 -50.006,-40.909 -52.828,-73.399 z"
           inkscape:connector-curvature="0"
           style="fill:#ffbb27" />
      </g>
      <circle
         id="circle3815"
         r="0"
         cy="415.01001"
         cx="-508.10001"
         style="fill:#d5d3cf;stroke-width:27.32900047;enable-background:new" />
      <path
         id="path3817"
         d="m 118.76,99.357 a 40.091,40.091 0 0 0 -7.4883,3.9766 163.34,163.34 0 0 0 -21.922,18.779 195.86,195.86 0 0 0 -21.053,25.098 189.43,189.43 0 0 0 -30.092,67.955 c -0.09284,0.38496 -5.7769,25.236 -5.1953,43.846 0.35704,-17.37 5.1103,-37.715 5.1953,-38.059 a 189.43,184.8 0 0 1 30.092,-66.295 195.86,191.08 0 0 1 21.053,-24.486 163.34,159.35 0 0 1 21.922,-18.32 40.091,39.111 0 0 1 7.2578,-3.7734 c 0.0243,-3.8433 0.1209,-7.0505 0.23047,-8.7207 z m -0.20313,14.75 c -0.23281,13.029 0.55231,39.513 7.957,48.664 h 0.10547 c 1.0787,-0.0284 33.611,-0.59738 49.971,9.7793 1.7998,1.1528 3.2978,2.1129 4.6289,2.998 a 67.055,65.417 0 0 1 5.7871,4.2793 c 3.4202,2.8285 7.2814,6.5929 15.412,14.412 11.418,10.971 36.244,22.243 47.967,27.939 a 111.69,111.69 0 0 0 6.373,-2.0449 c -0.0869,-1.8229 -39.122,-17.362 -54.34,-32.35 -8.1308,-8.015 -11.992,-11.874 -15.412,-14.773 a 67.055,67.055 0 0 0 -5.7871,-4.3867 c -1.331,-0.90734 -2.8292,-1.8906 -4.6289,-3.0723 -16.36,-10.637 -48.892,-10.053 -49.971,-10.023 h -0.10547 c -6.0346,-7.6445 -7.6793,-27.209 -7.957,-41.422 z m 323.05,77.01 c -0.0345,-0.0549 0,0.0548 0,0.21875 v 0.21875 a 203.13,203.13 0 0 1 0.0859,0.27148 c -0.0167,-0.11081 -0.028,-0.2212 -0.0449,-0.33203 z m 0.0859,0.70898 c 0.48568,3.23 0.83965,6.4542 1.0644,9.668 a 203.13,198.16 0 0 1 10.061,63.834 203.13,203.13 0 0 0 -11.125,-73.502 z m 1.3144,21.057 c -1.0056,44.149 -25.53,85.59 -61.133,114.93 l -0.12891,0.28907 c -80.486,65.55 -157.51,39.548 -173.1,28.936 -1.0877,-0.52037 -2.1758,-1.062 -3.2637,-1.625 -41.932,-20.043 -61.86,-56.312 -62.666,-89.967 -1.01,34.068 18.787,71.865 62.666,92.326 1.0879,0.54922 2.176,1.0783 3.2637,1.5859 15.591,10.353 92.616,35.72 173.1,-28.229 l 0.12891,-0.28125 c 37.209,-29.909 62.327,-72.718 61.133,-117.96 z m -350.56,11.664 a 84.594,82.527 0 0 0 -2.3516,1.252 57.598,56.191 0 0 0 52.736,32.592 c 0.0913,-1.6207 0.21131,-3.2343 0.39258,-4.834 a 57.598,57.598 0 0 1 -50.777,-29.01 z"
         inkscape:connector-curvature="0"
         style="opacity:0.1;fill:#ffffff;stroke-width:5.78709984" />
    </g>
  </g>
</svg>
